<?xml version="1.0" encoding="UTF-8" standalone="no"?>
<!DOCTYPE svg PUBLIC "-//W3C//DTD SVG 1.1//EN" "http://www.w3.org/Graphics/SVG/1.1/DTD/svg11.dtd">
<svg width="400" height="300" viewBox="0 0 800 600" preserveAspectRatio="none"
	xmlns="http://www.w3.org/2000/svg" version="1.1"
	xmlns:xlink="http://www.w3.org/1999/xlink">
	<defs>
		<rect id="lightsquare" x="0" y="0" width="1" height="1" style="fill:#E5E9F0;"/>
		<rect id="darksquare" x="0" y="0" width="1" height="1" style="fill:#828ca1;"/>
		<g id="white">
			<ellipse cx=".5" cy=".5" rx=".3125" ry=".26" transform="translate(0,.07)" style="fill:#D8DEE9;stroke:#4C566A;stroke-width:.03;"/>
			<ellipse cx=".5" cy=".5" rx=".3125" ry=".26" style="fill:#ECEFF4;stroke:#4C566A;stroke-width:.03;"/>
		</g>
		<g id="black">
			<ellipse cx=".5" cy=".5" rx=".3125" ry=".26" transform="translate(0,.07)" style="fill:#3B4252;stroke:#2E3440;stroke-width:.03;"/>
			<ellipse cx=".5" cy=".5" rx=".3125" ry=".26" style="fill:#4C566A;stroke:#2E3440;stroke-width:.03;"/>
		</g>
		<g id="whiteking">
			<use xlink:href="#white"/>
			<path style="fill:#4C566A;fill-opacity:1;stroke:none;stroke-width:0.00139318" d="m 0.5,0.35 c -0.0238,0.0209 -0.0274,0.0487 -0.0252,0.0718 -0.002,-3.6e-4 -0.003,-4.2e-4 -0.005,-4.2e-4 -0.0126,0 -0.0229,0.0102 -0.0229,0.0229 0,0.0126 0.0102,0.0229 0.0229,0.0229 0.006,0 0.0107,-0.002 0.0147,-0.005 4.7e-4,0.001 8.4e-4,0.002 8.4e-4,0.002 -0.022,0.0666 -0.0743,0.0336 -0.0925,0.0147 0.005,-0.003 0.009,-0.008 0.009,-0.0149 0,-0.009 -0.007,-0.017 -0.0168,-0.017 -0.009,0 -0.017,0.008 -0.017,0.017 0,0.009 0.008,0.0168 0.017,0.0168 4e-4,0 6.5e-4,2e-5 0.001,0 -0.005,0.0505 -0.0351,0.0731 -0.0764,0.0189 6.2e-4,6e-5 0.001,0 0.002,0 0.009,0 0.0168,-0.008 0.0168,-0.017 0,-0.009 -0.007,-0.0168 -0.0168,-0.0168 -0.008,0 -0.0144,0.005 -0.0164,0.0124 -0.009,-0.0143 -0.0508,-0.0235 -0.0363,-0.0118 0.0365,0.0297 0.0829,0.1322 0.0829,0.1322 h 2.1e-4 c 0.0122,-0.0321 0.0787,-0.0567 0.15885,-0.0567 0.0801,0 0.1464,0.0246 0.15863,0.0567 h 2.1e-4 c 0.009,-0.0199 0.0488,-0.10621 0.0808,-0.1322 0.0145,-0.0118 -0.0273,-0.003 -0.0363,0.0118 -0.002,-0.007 -0.008,-0.0124 -0.0162,-0.0124 -0.009,0 -0.017,0.007 -0.017,0.0168 0,0.009 0.008,0.017 0.017,0.017 6.4e-4,0 0.001,6e-5 0.002,0 -0.0413,0.0542 -0.0719,0.0316 -0.0764,-0.0189 3.9e-4,2e-5 8.5e-4,0 10e-4,0 0.009,0 0.0168,-0.007 0.0168,-0.0168 0,-0.009 -0.007,-0.017 -0.0168,-0.017 -0.009,0 -0.017,0.008 -0.017,0.017 0,0.006 0.004,0.0121 0.009,0.0149 -0.0183,0.0189 -0.0703,0.0519 -0.0923,-0.0147 0,0 3.7e-4,-9.1e-4 8.4e-4,-0.002 0.004,0.003 0.009,0.005 0.0145,0.005 0.0126,0 0.0229,-0.0102 0.0229,-0.0229 0,-0.0126 -0.0102,-0.0229 -0.0229,-0.0229 -0.002,0 -0.003,6e-5 -0.005,4.2e-4 0.002,-0.023 -0.001,-0.0509 -0.025,-0.0718 z" />
		</g>
		<g id="blackking">
			<use xlink:href="#black"/>
			<path style="fill:#ECEFF4;fill-opacity:1;stroke:none;stroke-width:0.00139318" d="m 0.5,0.35 c -0.0238,0.0209 -0.0274,0.0487 -0.0252,0.0718 -0.002,-3.6e-4 -0.003,-4.2e-4 -0.005,-4.2e-4 -0.0126,0 -0.0229,0.0102 -0.0229,0.0229 0,0.0126 0.0102,0.0229 0.0229,0.0229 0.006,0 0.0107,-0.002 0.0147,-0.005 4.7e-4,0.001 8.4e-4,0.002 8.4e-4,0.002 -0.022,0.0666 -0.0743,0.0336 -0.0925,0.0147 0.005,-0.003 0.009,-0.008 0.009,-0.0149 0,-0.009 -0.007,-0.017 -0.0168,-0.017 -0.009,0 -0.017,0.008 -0.017,0.017 0,0.009 0.008,0.0168 0.017,0.0168 4e-4,0 6.5e-4,2e-5 0.001,0 -0.005,0.0505 -0.0351,0.0731 -0.0764,0.0189 6.2e-4,6e-5 0.001,0 0.002,0 0.009,0 0.0168,-0.008 0.0168,-0.017 0,-0.009 -0.007,-0.0168 -0.0168,-0.0168 -0.008,0 -0.0144,0.005 -0.0164,0.0124 -0.009,-0.0143 -0.0508,-0.0235 -0.0363,-0.0118 0.0365,0.0297 0.0829,0.1322 0.0829,0.1322 h 2.1e-4 c 0.0122,-0.0321 0.0787,-0.0567 0.15885,-0.0567 0.0801,0 0.1464,0.0246 0.15863,0.0567 h 2.1e-4 c 0.009,-0.0199 0.0488,-0.10621 0.0808,-0.1322 0.0145,-0.0118 -0.0273,-0.003 -0.0363,0.0118 -0.002,-0.007 -0.008,-0.0124 -0.0162,-0.0124 -0.009,0 -0.017,0.007 -0.017,0.0168 0,0.009 0.008,0.017 0.017,0.017 6.4e-4,0 0.001,6e-5 0.002,0 -0.0413,0.0542 -0.0719,0.0316 -0.0764,-0.0189 3.9e-4,2e-5 8.5e-4,0 10e-4,0 0.009,0 0.0168,-0.007 0.0168,-0.0168 0,-0.009 -0.007,-0.017 -0.0168,-0.017 -0.009,0 -0.017,0.008 -0.017,0.017 0,0.006 0.004,0.0121 0.009,0.0149 -0.0183,0.0189 -0.0703,0.0519 -0.0923,-0.0147 0,0 3.7e-4,-9.1e-4 8.4e-4,-0.002 0.004,0.003 0.009,0.005 0.0145,0.005 0.0126,0 0.0229,-0.0102 0.0229,-0.0229 0,-0.0126 -0.0102,-0.0229 -0.0229,-0.0229 -0.002,0 -0.003,6e-5 -0.005,4.2e-4 0.002,-0.023 -0.001,-0.0509 -0.025,-0.0718 z" />
		</g>
		<g id="move">
			<circle cx=".5" cy=".5" r="0.15" style="fill:#3cde5b"/>
		</g>
		<g id="lightrow">
			<use xlink:href="#lightsquare" x="1"/>
			<use xlink:href="#darksquare" x="2"/>
			<use xlink:href="#lightsquare" x="3"/>
			<use xlink:href="#darksquare" x="4"/>
			<use xlink:href="#lightsquare" x="5"/>
			<use xlink:href="#darksquare" x="6"/>
			<use xlink:href="#lightsquare" x="7"/>
			<use xlink:href="#darksquare" x="8"/>
		</g>
		<g id="darkrow">
			<use xlink:href="#darksquare" x="1"/>
			<use xlink:href="#lightsquare" x="2"/>
			<use xlink:href="#darksquare" x="3"/>
			<use xlink:href="#lightsquare" x="4"/>
			<use xlink:href="#darksquare" x="5"/>
			<use xlink:href="#lightsquare" x="6"/>
			<use xlink:href="#darksquare" x="7"/>
			<use xlink:href="#lightsquare" x="8"/>

		</g>
	</defs>
	<g transform="scale(100,100) translate(-1,-1)">
		<!-- The board -->
		<use xlink:href="#darkrow" y="1"/>
		<use xlink:href="#lightrow" y="2"/>
		<use xlink:href="#darkrow" y="3"/>
		<use xlink:href="#lightrow" y="4"/>
		<use xlink:href="#darkrow" y="5"/>
		<use xlink:href="#lightrow" y="6"/>
		<use xlink:href="#darkrow" y="7"/>

		<!-- The pieces -->
		<use xlink:href="#whiteking" x="2" y="2"/>
		<use xlink:href="#white" x="4" y="2"/>
		<use xlink:href="#white" x="6" y="4"/>
		<use xlink:href="#white" x="2" y="4"/>
		<use xlink:href="#white" x="5" y="5"/>
		<use xlink:href="#blackking" x="2" y="6"/>
		<use xlink:href="#black" x="7" y="1"/>
		<use xlink:href="#black" x="8" y="2"/>

		<line x1="7.5" y1="5.5" x2="3.5" y2="1.5" style="stroke:#3cde5b;stroke-width:.1;" />
		<use xlink:href="#move" x="5" y="3"/>
		<use xlink:href="#move" x="3" y="1"/>
		<line x1="3.5" y1="1.5" x2="1.5" y2="3.5" style="stroke:#3cde5b;stroke-width:.1;" />
		<use xlink:href="#move" x="1" y="3"/>
		<line x1="1.5" y1="3.5" x2="3.5" y2="5.5" style="stroke:#3cde5b;stroke-width:.1;" />
		<use xlink:href="#move" x="3" y="5"/>
		<use xlink:href="#black" x="7" y="5"/>
	</g>
</svg>