<?xml version="1.0" encoding="UTF-8" standalone="no"?>
<!DOCTYPE svg PUBLIC "-//W3C//DTD SVG 1.1//EN" "http://www.w3.org/Graphics/SVG/1.1/DTD/svg11.dtd">
<svg width="350" height="250" viewBox="0 0 700 500" preserveAspectRatio="none"
	xmlns="http://www.w3.org/2000/svg" version="1.1"
	xmlns:xlink="http://www.w3.org/1999/xlink">
	<defs>
		<rect id="lightsquare" x="0" y="0" width="1" height="1" style="fill:#E5E9F0;"/>
		<rect id="darksquare" x="0" y="0" width="1" height="1" style="fill:#828ca1;"/>
		<g id="white">
			<ellipse cx=".5" cy=".5" rx=".3125" ry=".26" transform="translate(0,.07)" style="fill:#D8DEE9;stroke:#4C566A;stroke-width:.03;"/>
			<ellipse cx=".5" cy=".5" rx=".3125" ry=".26" style="fill:#ECEFF4;stroke:#4C566A;stroke-width:.03;"/>
		</g>
		<g id="black">
			<ellipse cx=".5" cy=".5" rx=".3125" ry=".26" transform="translate(0,.07)" style="fill:#3B4252;stroke:#2E3440;stroke-width:.03;"/>
			<ellipse cx=".5" cy=".5" rx=".3125" ry=".26" style="fill:#4C566A;stroke:#2E3440;stroke-width:.03;"/>
		</g>
		<g id="move">
			<circle cx=".5" cy=".5" r="0.15" style="fill:#3cde5b"/>
		</g>
		<g id="lightrow">
			<use xlink:href="#lightsquare" x="1"/>
			<use xlink:href="#darksquare" x="2"/>
			<use xlink:href="#lightsquare" x="3"/>
			<use xlink:href="#darksquare" x="4"/>
			<use xlink:href="#lightsquare" x="5"/>
			<use xlink:href="#darksquare" x="6"/>
			<use xlink:href="#lightsquare" x="7"/>
		</g>
		<g id="darkrow">
			<use xlink:href="#darksquare" x="1"/>
			<use xlink:href="#lightsquare" x="2"/>
			<use xlink:href="#darksquare" x="3"/>
			<use xlink:href="#lightsquare" x="4"/>
			<use xlink:href="#darksquare" x="5"/>
			<use xlink:href="#lightsquare" x="6"/>
			<use xlink:href="#darksquare" x="7"/>

		</g>
	</defs>
	<g transform="scale(100,100) translate(-1,-1)">
		<!-- The board -->
		<use xlink:href="#lightrow" y="1"/>
		<use xlink:href="#darkrow" y="2"/>
		<use xlink:href="#lightrow" y="3"/>
		<use xlink:href="#darkrow" y="4"/>
		<use xlink:href="#lightrow" y="5"/>

		<!-- The pieces -->
		<use xlink:href="#black" x="2" y="1"/>
		<use xlink:href="#black" x="1" y="2"/>
		<use xlink:href="#black" x="3" y="2"/>
		<use xlink:href="#black" x="5" y="2"/>
		<use xlink:href="#white" x="5" y="4"/>
		<use xlink:href="#white" x="3" y="4"/>
		<use xlink:href="#move" x="2" y="3"/>
		<line x1="2.5" y1="3.5" x2="4.5" y2="1.5" style="stroke:#3cde5b;stroke-width:.1;" />
		<use xlink:href="#move" x="4" y="1"/>
		<line x1="6.5" y1="3.5" x2="4.5" y2="1.5" style="stroke:#3cde5b;stroke-width:.1;" />
		<use xlink:href="#white" x="6" y="3"/>
	</g>
</svg>